<?xml version="1.0" encoding="utf-8" standalone="no"?>
<!DOCTYPE svg PUBLIC "-//W3C//DTD SVG 1.1//EN"
  "http://www.w3.org/Graphics/SVG/1.1/DTD/svg11.dtd">
<svg xmlns:xlink="http://www.w3.org/1999/xlink" width="537.12pt" height="224.68pt" viewBox="0 0 537.12 224.68" xmlns="http://www.w3.org/2000/svg" version="1.1">
 <metadata>
  <rdf:RDF xmlns:dc="http://purl.org/dc/elements/1.1/" xmlns:cc="http://creativecommons.org/ns#" xmlns:rdf="http://www.w3.org/1999/02/22-rdf-syntax-ns#">
   <cc:Work>
    <dc:type rdf:resource="http://purl.org/dc/dcmitype/StillImage"/>
    <dc:format>image/svg+xml</dc:format>
   </cc:Work>
  </rdf:RDF>
 </metadata>
 <defs>
  <style type="text/css">*{stroke-linejoin: round; stroke-linecap: butt}</style>
 </defs>
 <g id="figure_1">
  <g id="patch_1">
   <path d="M 0 224.68 
L 537.12 224.68 
L 537.12 0 
L 0 0 
z
" style="fill: #ffffff"/>
  </g>
  <g id="axes_1">
   <g id="patch_2">
    <path d="M 50.547383 181.83918 
L 194.999557 181.83918 
L 194.999557 56.340781 
L 50.547383 56.340781 
z
" style="fill: #ffffff"/>
   </g>
   <g id="matplotlib.axis_1">
    <g id="xtick_1">
     <g id="line2d_1">
      <defs>
       <path id="ma67647b1fe" d="M 0 0 
L 0 3 
" style="stroke: #596775; stroke-width: 0.8"/>
      </defs>
      <g>
       <use xlink:href="#ma67647b1fe" x="50.547383" y="181.83918" style="fill: #596775; stroke: #596775; stroke-width: 0.8"/>
      </g>
     </g>
     <g id="text_1">
      <text style="font-size: 10px; font-family: 'DejaVu Sans'; text-anchor: middle; fill: #596775" x="50.547383" y="195.936836" transform="rotate(-0 50.547383 195.936836)">−2</text>
     </g>
    </g>
    <g id="xtick_2">
     <g id="line2d_2">
      <g>
       <use xlink:href="#ma67647b1fe" x="86.660426" y="181.83918" style="fill: #596775; stroke: #596775; stroke-width: 0.8"/>
      </g>
     </g>
     <g id="text_2">
      <text style="font-size: 10px; font-family: 'DejaVu Sans'; text-anchor: middle; fill: #596775" x="86.660426" y="195.936836" transform="rotate(-0 86.660426 195.936836)">−1</text>
     </g>
    </g>
    <g id="xtick_3">
     <g id="line2d_3">
      <g>
       <use xlink:href="#ma67647b1fe" x="122.77347" y="181.83918" style="fill: #596775; stroke: #596775; stroke-width: 0.8"/>
      </g>
     </g>
     <g id="text_3">
      <text style="font-size: 10px; font-family: 'DejaVu Sans'; text-anchor: middle; fill: #596775" x="122.77347" y="195.936836" transform="rotate(-0 122.77347 195.936836)">0</text>
     </g>
    </g>
    <g id="xtick_4">
     <g id="line2d_4">
      <g>
       <use xlink:href="#ma67647b1fe" x="158.886514" y="181.83918" style="fill: #596775; stroke: #596775; stroke-width: 0.8"/>
      </g>
     </g>
     <g id="text_4">
      <text style="font-size: 10px; font-family: 'DejaVu Sans'; text-anchor: middle; fill: #596775" x="158.886514" y="195.936836" transform="rotate(-0 158.886514 195.936836)">1</text>
     </g>
    </g>
    <g id="xtick_5">
     <g id="line2d_5">
      <g>
       <use xlink:href="#ma67647b1fe" x="194.999557" y="181.83918" style="fill: #596775; stroke: #596775; stroke-width: 0.8"/>
      </g>
     </g>
     <g id="text_5">
      <text style="font-size: 10px; font-family: 'DejaVu Sans'; text-anchor: middle; fill: #596775" x="194.999557" y="195.936836" transform="rotate(-0 194.999557 195.936836)">2</text>
     </g>
    </g>
   </g>
   <g id="matplotlib.axis_2">
    <g id="ytick_1">
     <g id="line2d_6">
      <path d="M 50.547383 181.83918 
L 194.999557 181.83918 
" clip-path="url(#p9dd8f5381a)" style="fill: none; stroke: #e3e8ed; stroke-width: 0.65; stroke-linecap: square"/>
     </g>
     <g id="line2d_7">
      <defs>
       <path id="m07b1a6ea65" d="M 0 0 
L -3 0 
" style="stroke: #596775; stroke-width: 0.8"/>
      </defs>
      <g>
       <use xlink:href="#m07b1a6ea65" x="50.547383" y="181.83918" style="fill: #596775; stroke: #596775; stroke-width: 0.8"/>
      </g>
     </g>
     <g id="text_6">
      <text style="font-size: 10px; font-family: 'DejaVu Sans'; text-anchor: end; fill: #596775" x="44.047383" y="185.638008" transform="rotate(-0 44.047383 185.638008)">0%</text>
     </g>
    </g>
    <g id="ytick_2">
     <g id="line2d_8">
      <path d="M 50.547383 150.46458 
L 194.999557 150.46458 
" clip-path="url(#p9dd8f5381a)" style="fill: none; stroke: #e3e8ed; stroke-width: 0.65; stroke-linecap: square"/>
     </g>
     <g id="line2d_9">
      <g>
       <use xlink:href="#m07b1a6ea65" x="50.547383" y="150.46458" style="fill: #596775; stroke: #596775; stroke-width: 0.8"/>
      </g>
     </g>
     <g id="text_7">
      <text style="font-size: 10px; font-family: 'DejaVu Sans'; text-anchor: end; fill: #596775" x="44.047383" y="154.263408" transform="rotate(-0 44.047383 154.263408)">5%</text>
     </g>
    </g>
    <g id="ytick_3">
     <g id="line2d_10">
      <path d="M 50.547383 119.08998 
L 194.999557 119.08998 
" clip-path="url(#p9dd8f5381a)" style="fill: none; stroke: #e3e8ed; stroke-width: 0.65; stroke-linecap: square"/>
     </g>
     <g id="line2d_11">
      <g>
       <use xlink:href="#m07b1a6ea65" x="50.547383" y="119.08998" style="fill: #596775; stroke: #596775; stroke-width: 0.8"/>
      </g>
     </g>
     <g id="text_8">
      <text style="font-size: 10px; font-family: 'DejaVu Sans'; text-anchor: end; fill: #596775" x="44.047383" y="122.888809" transform="rotate(-0 44.047383 122.888809)">10%</text>
     </g>
    </g>
    <g id="ytick_4">
     <g id="line2d_12">
      <path d="M 50.547383 87.715381 
L 194.999557 87.715381 
" clip-path="url(#p9dd8f5381a)" style="fill: none; stroke: #e3e8ed; stroke-width: 0.65; stroke-linecap: square"/>
     </g>
     <g id="line2d_13">
      <g>
       <use xlink:href="#m07b1a6ea65" x="50.547383" y="87.715381" style="fill: #596775; stroke: #596775; stroke-width: 0.8"/>
      </g>
     </g>
     <g id="text_9">
      <text style="font-size: 10px; font-family: 'DejaVu Sans'; text-anchor: end; fill: #596775" x="44.047383" y="91.514209" transform="rotate(-0 44.047383 91.514209)">15%</text>
     </g>
    </g>
    <g id="ytick_5">
     <g id="line2d_14">
      <path d="M 50.547383 56.340781 
L 194.999557 56.340781 
" clip-path="url(#p9dd8f5381a)" style="fill: none; stroke: #e3e8ed; stroke-width: 0.65; stroke-linecap: square"/>
     </g>
     <g id="line2d_15">
      <g>
       <use xlink:href="#m07b1a6ea65" x="50.547383" y="56.340781" style="fill: #596775; stroke: #596775; stroke-width: 0.8"/>
      </g>
     </g>
     <g id="text_10">
      <text style="font-size: 10px; font-family: 'DejaVu Sans'; text-anchor: end; fill: #596775" x="44.047383" y="60.139609" transform="rotate(-0 44.047383 60.139609)">20%</text>
     </g>
    </g>
    <g id="text_11">
     <text style="font-size: 10.5px; font-family: 'DejaVu Sans'; text-anchor: middle; fill: #273444" x="12.298359" y="119.08998" transform="rotate(-90 12.298359 119.08998)">Fraction of ratio pairs per bin</text>
    </g>
   </g>
   <g id="line2d_16">
    <path d="M 122.77347 181.83918 
L 122.77347 56.340781 
" clip-path="url(#p9dd8f5381a)" style="fill: none; stroke-dasharray: 1.2,1.98; stroke-dashoffset: 0; stroke: #596775; stroke-width: 1.2"/>
   </g>
   <g id="patch_3">
    <path d="M -1 181.69964 
L 0.891948 181.69964 
L 0.891948 181.542658 
L 18.94847 181.438003 
L 18.94847 181.246137 
L 37.004991 181.211252 
L 37.004991 180.862403 
L 46.033252 180.757748 
L 46.033252 180.530996 
L 50.547383 180.530996 
L 50.547383 180.653093 
L 55.061513 180.653093 
L 55.061513 180.26936 
L 59.575644 180.26936 
L 59.575644 180.147262 
L 64.089774 180.147262 
L 64.089774 179.937953 
L 68.603905 179.937953 
L 68.603905 179.083273 
L 73.118035 179.083273 
L 73.118035 178.594885 
L 77.632166 178.594885 
L 77.632166 177.984399 
L 82.146296 177.984399 
L 82.146296 177.269259 
L 86.660426 177.269259 
L 86.660426 175.699439 
L 91.174557 175.699439 
L 91.174557 174.147061 
L 95.688687 174.147061 
L 95.688687 172.594683 
L 100.202818 172.594683 
L 100.202818 168.72246 
L 104.716948 168.72246 
L 104.716948 155.605741 
L 109.231079 155.605741 
L 109.231079 128.918799 
L 113.745209 128.918799 
L 113.745209 84.649871 
L 118.25934 84.649871 
L 118.25934 71.428497 
L 122.77347 71.428497 
L 122.77347 102.790015 
L 127.287601 102.790015 
L 127.287601 144.634443 
L 131.801731 144.634443 
L 131.801731 156.547633 
L 136.315861 156.547633 
L 136.315861 159.617504 
L 140.829992 159.617504 
L 140.829992 161.257093 
L 145.344122 161.257093 
L 145.344122 165.111874 
L 149.858253 165.111874 
L 149.858253 169.018982 
L 154.372383 169.018982 
L 154.372383 173.850539 
L 158.886514 173.850539 
L 158.886514 176.240155 
L 163.400644 176.240155 
L 163.400644 177.530896 
L 167.914775 177.530896 
L 167.914775 178.437903 
L 172.428905 178.437903 
L 172.428905 178.699539 
L 176.943035 178.699539 
L 176.943035 178.978619 
L 185.971296 179.013503 
L 185.971296 179.780971 
L 190.485427 179.780971 
L 190.485427 179.467007 
L 194.999557 179.467007 
L 194.999557 180.164705 
L 199.513688 180.164705 
L 199.513688 180.025165 
L 204.027818 180.025165 
L 204.027818 180.164705 
L 208.541949 180.164705 
L 208.541949 180.478669 
L 217.57021 180.565881 
L 217.57021 180.862403 
L 222.08434 180.862403 
L 222.08434 180.722863 
L 226.59847 180.722863 
L 226.59847 180.897288 
L 235.626731 180.84496 
L 235.626731 180.600766 
L 240.140862 180.600766 
L 240.140862 180.967057 
L 244.654992 180.967057 
L 244.654992 181.141482 
L 267.225645 181.246137 
L 267.225645 181.298464 
L 280.768036 181.333349 
L 280.768036 181.176367 
L 285.282166 181.176367 
L 285.282166 181.438003 
L 303.338688 181.472888 
L 303.338688 181.560101 
L 339.451732 181.647313 
L 339.451732 181.83918 
L 339.451732 181.83918 
" clip-path="url(#p9dd8f5381a)" style="fill: none; stroke: #30688e; stroke-width: 1.7; stroke-linejoin: miter"/>
   </g>
   <g id="patch_4">
    <path d="M -1 181.786875 
L 18.94847 181.682264 
L 18.94847 181.669188 
L 41.519122 181.669188 
L 41.519122 181.459967 
L 55.061513 181.48612 
L 55.061513 181.185365 
L 68.603905 181.172289 
L 68.603905 180.727695 
L 73.118035 180.727695 
L 73.118035 180.335406 
L 77.632166 180.335406 
L 77.632166 179.694668 
L 82.146296 179.694668 
L 82.146296 179.05393 
L 86.660426 179.05393 
L 86.660426 177.89014 
L 91.174557 177.89014 
L 91.174557 175.497178 
L 95.688687 175.497178 
L 95.688687 173.954176 
L 100.202818 173.954176 
L 100.202818 169.050567 
L 104.716948 169.050567 
L 104.716948 156.693471 
L 109.231079 156.693471 
L 109.231079 124.342727 
L 113.745209 124.342727 
L 113.745209 76.83656 
L 118.25934 76.83656 
L 118.25934 62.936463 
L 122.77347 62.936463 
L 122.77347 92.998856 
L 127.287601 92.998856 
L 127.287601 138.870486 
L 131.801731 138.870486 
L 131.801731 153.646696 
L 136.315861 153.646696 
L 136.315861 158.210321 
L 140.829992 158.210321 
L 140.829992 160.093307 
L 145.344122 160.093307 
L 145.344122 164.199263 
L 149.858253 164.199263 
L 149.858253 169.063643 
L 154.372383 169.063643 
L 154.372383 173.431124 
L 158.886514 173.431124 
L 158.886514 176.791731 
L 163.400644 176.791731 
L 163.400644 178.217047 
L 167.914775 178.217047 
L 167.914775 178.635488 
L 172.428905 178.635488 
L 172.428905 179.590058 
L 176.943035 179.590058 
L 176.943035 179.96927 
L 181.457166 179.96927 
L 181.457166 180.348482 
L 185.971296 180.348482 
L 185.971296 180.191567 
L 190.485427 180.191567 
L 190.485427 180.623085 
L 194.999557 180.623085 
L 194.999557 180.845382 
L 213.056079 180.949992 
L 213.056079 181.067678 
L 222.08434 181.159213 
L 222.08434 181.185365 
L 240.140862 181.185365 
L 240.140862 181.381509 
L 244.654992 181.381509 
L 244.654992 181.538425 
L 276.253905 181.629959 
L 276.253905 181.69534 
L 339.451732 181.786875 
L 339.451732 181.83918 
L 339.451732 181.83918 
" clip-path="url(#p9dd8f5381a)" style="fill: none; stroke-dasharray: 6.8,3.4; stroke-dashoffset: 0; stroke: #d57632; stroke-width: 1.7; stroke-linejoin: miter"/>
   </g>
   <g id="patch_5">
    <path d="M 50.547383 181.83918 
L 50.547383 56.340781 
" style="fill: none; stroke: #a2abb3; stroke-width: 0.7; stroke-linejoin: miter; stroke-linecap: square"/>
   </g>
   <g id="patch_6">
    <path d="M 50.547383 181.83918 
L 194.999557 181.83918 
" style="fill: none; stroke: #a2abb3; stroke-width: 0.7; stroke-linejoin: miter; stroke-linecap: square"/>
   </g>
   <g id="text_12">
    <text style="font-weight: 700; font-size: 11.5px; font-family: 'DejaVu Sans'; text-anchor: start; fill: #273444" x="50.547383" y="43.340781" transform="rotate(-0 50.547383 43.340781)">A  Human</text>
   </g>
  </g>
  <g id="axes_2">
   <g id="patch_7">
    <path d="M 219.951901 181.83918 
L 364.404076 181.83918 
L 364.404076 56.340781 
L 219.951901 56.340781 
z
" style="fill: #ffffff"/>
   </g>
   <g id="matplotlib.axis_3">
    <g id="xtick_6">
     <g id="line2d_17">
      <g>
       <use xlink:href="#ma67647b1fe" x="219.951901" y="181.83918" style="fill: #596775; stroke: #596775; stroke-width: 0.8"/>
      </g>
     </g>
     <g id="text_13">
      <text style="font-size: 10px; font-family: 'DejaVu Sans'; text-anchor: middle; fill: #596775" x="219.951901" y="195.936836" transform="rotate(-0 219.951901 195.936836)">−3</text>
     </g>
    </g>
    <g id="xtick_7">
     <g id="line2d_18">
      <g>
       <use xlink:href="#ma67647b1fe" x="256.064945" y="181.83918" style="fill: #596775; stroke: #596775; stroke-width: 0.8"/>
      </g>
     </g>
     <g id="text_14">
      <text style="font-size: 10px; font-family: 'DejaVu Sans'; text-anchor: middle; fill: #596775" x="256.064945" y="195.936836" transform="rotate(-0 256.064945 195.936836)">−2</text>
     </g>
    </g>
    <g id="xtick_8">
     <g id="line2d_19">
      <g>
       <use xlink:href="#ma67647b1fe" x="292.177988" y="181.83918" style="fill: #596775; stroke: #596775; stroke-width: 0.8"/>
      </g>
     </g>
     <g id="text_15">
      <text style="font-size: 10px; font-family: 'DejaVu Sans'; text-anchor: middle; fill: #596775" x="292.177988" y="195.936836" transform="rotate(-0 292.177988 195.936836)">−1</text>
     </g>
    </g>
    <g id="xtick_9">
     <g id="line2d_20">
      <g>
       <use xlink:href="#ma67647b1fe" x="328.291032" y="181.83918" style="fill: #596775; stroke: #596775; stroke-width: 0.8"/>
      </g>
     </g>
     <g id="text_16">
      <text style="font-size: 10px; font-family: 'DejaVu Sans'; text-anchor: middle; fill: #596775" x="328.291032" y="195.936836" transform="rotate(-0 328.291032 195.936836)">0</text>
     </g>
    </g>
    <g id="xtick_10">
     <g id="line2d_21">
      <g>
       <use xlink:href="#ma67647b1fe" x="364.404076" y="181.83918" style="fill: #596775; stroke: #596775; stroke-width: 0.8"/>
      </g>
     </g>
     <g id="text_17">
      <text style="font-size: 10px; font-family: 'DejaVu Sans'; text-anchor: middle; fill: #596775" x="364.404076" y="195.936836" transform="rotate(-0 364.404076 195.936836)">1</text>
     </g>
    </g>
   </g>
   <g id="matplotlib.axis_4">
    <g id="ytick_6">
     <g id="line2d_22">
      <path d="M 219.951901 181.83918 
L 364.404076 181.83918 
" clip-path="url(#p8ad2365494)" style="fill: none; stroke: #e3e8ed; stroke-width: 0.65; stroke-linecap: square"/>
     </g>
     <g id="line2d_23">
      <g>
       <use xlink:href="#m07b1a6ea65" x="219.951901" y="181.83918" style="fill: #596775; stroke: #596775; stroke-width: 0.8"/>
      </g>
     </g>
    </g>
    <g id="ytick_7">
     <g id="line2d_24">
      <path d="M 219.951901 150.46458 
L 364.404076 150.46458 
" clip-path="url(#p8ad2365494)" style="fill: none; stroke: #e3e8ed; stroke-width: 0.65; stroke-linecap: square"/>
     </g>
     <g id="line2d_25">
      <g>
       <use xlink:href="#m07b1a6ea65" x="219.951901" y="150.46458" style="fill: #596775; stroke: #596775; stroke-width: 0.8"/>
      </g>
     </g>
    </g>
    <g id="ytick_8">
     <g id="line2d_26">
      <path d="M 219.951901 119.08998 
L 364.404076 119.08998 
" clip-path="url(#p8ad2365494)" style="fill: none; stroke: #e3e8ed; stroke-width: 0.65; stroke-linecap: square"/>
     </g>
     <g id="line2d_27">
      <g>
       <use xlink:href="#m07b1a6ea65" x="219.951901" y="119.08998" style="fill: #596775; stroke: #596775; stroke-width: 0.8"/>
      </g>
     </g>
    </g>
    <g id="ytick_9">
     <g id="line2d_28">
      <path d="M 219.951901 87.715381 
L 364.404076 87.715381 
" clip-path="url(#p8ad2365494)" style="fill: none; stroke: #e3e8ed; stroke-width: 0.65; stroke-linecap: square"/>
     </g>
     <g id="line2d_29">
      <g>
       <use xlink:href="#m07b1a6ea65" x="219.951901" y="87.715381" style="fill: #596775; stroke: #596775; stroke-width: 0.8"/>
      </g>
     </g>
    </g>
    <g id="ytick_10">
     <g id="line2d_30">
      <path d="M 219.951901 56.340781 
L 364.404076 56.340781 
" clip-path="url(#p8ad2365494)" style="fill: none; stroke: #e3e8ed; stroke-width: 0.65; stroke-linecap: square"/>
     </g>
     <g id="line2d_31">
      <g>
       <use xlink:href="#m07b1a6ea65" x="219.951901" y="56.340781" style="fill: #596775; stroke: #596775; stroke-width: 0.8"/>
      </g>
     </g>
    </g>
   </g>
   <g id="line2d_32">
    <path d="M 292.177988 181.83918 
L 292.177988 56.340781 
" clip-path="url(#p8ad2365494)" style="fill: none; stroke-dasharray: 1.2,1.98; stroke-dashoffset: 0; stroke: #596775; stroke-width: 1.2"/>
   </g>
   <g id="patch_8">
    <path d="M 147.725814 181.83918 
L 147.725814 181.779887 
L 156.754075 181.779887 
L 156.754075 181.60201 
L 161.268205 181.60201 
L 161.268205 181.720595 
L 170.296466 181.779887 
L 170.296466 181.483425 
L 174.810597 181.483425 
L 174.810597 181.661302 
L 183.838857 181.661302 
L 183.838857 181.779887 
L 188.352988 181.779887 
L 188.352988 181.246255 
L 192.867118 181.246255 
L 192.867118 181.720595 
L 197.381249 181.720595 
L 197.381249 181.483425 
L 210.92364 181.483425 
L 210.92364 181.36484 
L 215.437771 181.36484 
L 215.437771 181.186963 
L 219.951901 181.186963 
L 219.951901 181.542717 
L 224.466031 181.542717 
L 224.466031 181.068378 
L 228.980162 181.068378 
L 228.980162 180.594038 
L 242.522553 180.594038 
L 242.522553 180.178991 
L 247.036684 180.178991 
L 247.036684 178.340925 
L 251.550814 178.340925 
L 251.550814 176.799321 
L 256.064945 176.799321 
L 256.064945 173.004605 
L 260.579075 173.004605 
L 260.579075 169.328473 
L 265.093206 169.328473 
L 265.093206 163.873568 
L 269.607336 163.873568 
L 269.607336 151.303568 
L 274.121466 151.303568 
L 274.121466 125.037013 
L 278.635597 125.037013 
L 278.635597 93.434138 
L 283.149727 93.434138 
L 283.149727 90.410223 
L 287.663858 90.410223 
L 287.663858 86.081874 
L 292.177988 86.081874 
L 292.177988 111.340457 
L 296.692119 111.340457 
L 296.692119 148.279653 
L 301.206249 148.279653 
L 301.206249 158.715124 
L 305.72038 158.715124 
L 305.72038 160.671775 
L 310.23451 160.671775 
L 310.23451 162.687719 
L 314.748641 162.687719 
L 314.748641 170.099275 
L 319.262771 170.099275 
L 319.262771 174.842671 
L 323.776901 174.842671 
L 323.776901 177.095784 
L 328.291032 177.095784 
L 328.291032 179.348897 
L 332.805162 179.348897 
L 332.805162 179.763944 
L 337.319293 179.763944 
L 337.319293 180.653331 
L 346.347554 180.594038 
L 346.347554 180.534746 
L 350.861684 180.534746 
L 350.861684 181.068378 
L 355.375815 181.068378 
L 355.375815 180.831208 
L 359.889945 180.831208 
L 359.889945 181.424133 
L 364.404076 181.424133 
L 364.404076 181.305548 
L 368.918206 181.305548 
L 368.918206 181.542717 
L 373.432336 181.542717 
L 373.432336 181.779887 
L 377.946467 181.779887 
L 377.946467 181.661302 
L 382.460597 181.661302 
L 382.460597 181.83918 
L 386.974728 181.83918 
L 386.974728 181.661302 
L 391.488858 181.661302 
L 391.488858 181.542717 
L 396.002989 181.542717 
L 396.002989 181.661302 
L 414.05951 181.60201 
L 414.05951 181.83918 
L 418.573641 181.83918 
L 418.573641 181.60201 
L 423.087771 181.60201 
L 423.087771 181.720595 
L 432.116032 181.779887 
L 432.116032 181.83918 
L 445.658424 181.83918 
L 445.658424 181.720595 
L 454.686685 181.779887 
L 454.686685 181.83918 
L 459.200815 181.83918 
L 459.200815 181.720595 
L 468.229076 181.661302 
L 468.229076 181.83918 
L 513.37038 181.83918 
L 513.37038 181.720595 
L 517.884511 181.720595 
L 517.884511 181.83918 
L 538.12 181.83918 
L 538.12 181.83918 
" clip-path="url(#p8ad2365494)" style="fill: none; stroke: #30688e; stroke-width: 1.7; stroke-linejoin: miter"/>
   </g>
   <g id="patch_9">
    <path d="M 147.725814 181.83918 
L 147.725814 181.789152 
L 188.352988 181.739125 
L 188.352988 181.438962 
L 192.867118 181.438962 
L 192.867118 181.739125 
L 206.40951 181.639071 
L 206.40951 181.388934 
L 210.92364 181.388934 
L 210.92364 181.539016 
L 224.466031 181.438962 
L 224.466031 180.988716 
L 228.980162 180.988716 
L 228.980162 180.838634 
L 233.494292 180.838634 
L 233.494292 180.488444 
L 242.522553 180.538471 
L 242.522553 180.088225 
L 247.036684 180.088225 
L 247.036684 178.837544 
L 251.550814 178.837544 
L 251.550814 176.736399 
L 256.064945 176.736399 
L 256.064945 173.834817 
L 260.579075 173.834817 
L 260.579075 168.181736 
L 265.093206 168.181736 
L 265.093206 162.578682 
L 269.607336 162.578682 
L 269.607336 152.122984 
L 274.121466 152.122984 
L 274.121466 122.656925 
L 278.635597 122.656925 
L 278.635597 93.190865 
L 283.149727 93.190865 
L 283.149727 91.940183 
L 287.663858 91.940183 
L 287.663858 87.087539 
L 292.177988 87.087539 
L 292.177988 110.450272 
L 296.692119 110.450272 
L 296.692119 148.420966 
L 301.206249 148.420966 
L 301.206249 157.12571 
L 305.72038 157.12571 
L 305.72038 161.127892 
L 310.23451 161.127892 
L 310.23451 163.028928 
L 314.748641 163.028928 
L 314.748641 169.0322 
L 319.262771 169.0322 
L 319.262771 174.585226 
L 323.776901 174.585226 
L 323.776901 176.33618 
L 328.291032 176.33618 
L 328.291032 178.987626 
L 332.805162 178.987626 
L 332.805162 179.688007 
L 337.319293 179.688007 
L 337.319293 180.788607 
L 350.861684 180.788607 
L 350.861684 181.188825 
L 355.375815 181.188825 
L 355.375815 181.488989 
L 359.889945 181.488989 
L 359.889945 181.639071 
L 386.974728 181.739125 
L 386.974728 181.789152 
L 400.517119 181.789152 
L 400.517119 181.589043 
L 405.03125 181.589043 
L 405.03125 181.739125 
L 538.12 181.83918 
L 538.12 181.83918 
" clip-path="url(#p8ad2365494)" style="fill: none; stroke-dasharray: 6.8,3.4; stroke-dashoffset: 0; stroke: #d57632; stroke-width: 1.7; stroke-linejoin: miter"/>
   </g>
   <g id="patch_10">
    <path d="M 219.951901 181.83918 
L 219.951901 56.340781 
" style="fill: none; stroke: #a2abb3; stroke-width: 0.7; stroke-linejoin: miter; stroke-linecap: square"/>
   </g>
   <g id="patch_11">
    <path d="M 219.951901 181.83918 
L 364.404076 181.83918 
" style="fill: none; stroke: #a2abb3; stroke-width: 0.7; stroke-linejoin: miter; stroke-linecap: square"/>
   </g>
   <g id="text_18">
    <text style="font-weight: 700; font-size: 11.5px; font-family: 'DejaVu Sans'; text-anchor: start; fill: #273444" x="219.951901" y="43.340781" transform="rotate(-0 219.951901 43.340781)">B  Yeast</text>
   </g>
  </g>
  <g id="axes_3">
   <g id="patch_12">
    <path d="M 385.166576 181.83918 
L 529.61875 181.83918 
L 529.61875 56.340781 
L 385.166576 56.340781 
z
" style="fill: #ffffff"/>
   </g>
   <g id="matplotlib.axis_5">
    <g id="xtick_11">
     <g id="line2d_33">
      <g>
       <use xlink:href="#ma67647b1fe" x="385.166576" y="181.83918" style="fill: #596775; stroke: #596775; stroke-width: 0.8"/>
      </g>
     </g>
     <g id="text_19">
      <text style="font-size: 10px; font-family: 'DejaVu Sans'; text-anchor: middle; fill: #596775" x="385.166576" y="195.936836" transform="rotate(-0 385.166576 195.936836)">0</text>
     </g>
    </g>
    <g id="xtick_12">
     <g id="line2d_34">
      <g>
       <use xlink:href="#ma67647b1fe" x="421.279619" y="181.83918" style="fill: #596775; stroke: #596775; stroke-width: 0.8"/>
      </g>
     </g>
     <g id="text_20">
      <text style="font-size: 10px; font-family: 'DejaVu Sans'; text-anchor: middle; fill: #596775" x="421.279619" y="195.936836" transform="rotate(-0 421.279619 195.936836)">1</text>
     </g>
    </g>
    <g id="xtick_13">
     <g id="line2d_35">
      <g>
       <use xlink:href="#ma67647b1fe" x="457.392663" y="181.83918" style="fill: #596775; stroke: #596775; stroke-width: 0.8"/>
      </g>
     </g>
     <g id="text_21">
      <text style="font-size: 10px; font-family: 'DejaVu Sans'; text-anchor: middle; fill: #596775" x="457.392663" y="195.936836" transform="rotate(-0 457.392663 195.936836)">2</text>
     </g>
    </g>
    <g id="xtick_14">
     <g id="line2d_36">
      <g>
       <use xlink:href="#ma67647b1fe" x="493.505706" y="181.83918" style="fill: #596775; stroke: #596775; stroke-width: 0.8"/>
      </g>
     </g>
     <g id="text_22">
      <text style="font-size: 10px; font-family: 'DejaVu Sans'; text-anchor: middle; fill: #596775" x="493.505706" y="195.936836" transform="rotate(-0 493.505706 195.936836)">3</text>
     </g>
    </g>
    <g id="xtick_15">
     <g id="line2d_37">
      <g>
       <use xlink:href="#ma67647b1fe" x="529.61875" y="181.83918" style="fill: #596775; stroke: #596775; stroke-width: 0.8"/>
      </g>
     </g>
     <g id="text_23">
      <text style="font-size: 10px; font-family: 'DejaVu Sans'; text-anchor: middle; fill: #596775" x="529.61875" y="195.936836" transform="rotate(-0 529.61875 195.936836)">4</text>
     </g>
    </g>
   </g>
   <g id="matplotlib.axis_6">
    <g id="ytick_11">
     <g id="line2d_38">
      <path d="M 385.166576 181.83918 
L 529.61875 181.83918 
" clip-path="url(#pb6bf04f265)" style="fill: none; stroke: #e3e8ed; stroke-width: 0.65; stroke-linecap: square"/>
     </g>
     <g id="line2d_39">
      <g>
       <use xlink:href="#m07b1a6ea65" x="385.166576" y="181.83918" style="fill: #596775; stroke: #596775; stroke-width: 0.8"/>
      </g>
     </g>
    </g>
    <g id="ytick_12">
     <g id="line2d_40">
      <path d="M 385.166576 150.46458 
L 529.61875 150.46458 
" clip-path="url(#pb6bf04f265)" style="fill: none; stroke: #e3e8ed; stroke-width: 0.65; stroke-linecap: square"/>
     </g>
     <g id="line2d_41">
      <g>
       <use xlink:href="#m07b1a6ea65" x="385.166576" y="150.46458" style="fill: #596775; stroke: #596775; stroke-width: 0.8"/>
      </g>
     </g>
    </g>
    <g id="ytick_13">
     <g id="line2d_42">
      <path d="M 385.166576 119.08998 
L 529.61875 119.08998 
" clip-path="url(#pb6bf04f265)" style="fill: none; stroke: #e3e8ed; stroke-width: 0.65; stroke-linecap: square"/>
     </g>
     <g id="line2d_43">
      <g>
       <use xlink:href="#m07b1a6ea65" x="385.166576" y="119.08998" style="fill: #596775; stroke: #596775; stroke-width: 0.8"/>
      </g>
     </g>
    </g>
    <g id="ytick_14">
     <g id="line2d_44">
      <path d="M 385.166576 87.715381 
L 529.61875 87.715381 
" clip-path="url(#pb6bf04f265)" style="fill: none; stroke: #e3e8ed; stroke-width: 0.65; stroke-linecap: square"/>
     </g>
     <g id="line2d_45">
      <g>
       <use xlink:href="#m07b1a6ea65" x="385.166576" y="87.715381" style="fill: #596775; stroke: #596775; stroke-width: 0.8"/>
      </g>
     </g>
    </g>
    <g id="ytick_15">
     <g id="line2d_46">
      <path d="M 385.166576 56.340781 
L 529.61875 56.340781 
" clip-path="url(#pb6bf04f265)" style="fill: none; stroke: #e3e8ed; stroke-width: 0.65; stroke-linecap: square"/>
     </g>
     <g id="line2d_47">
      <g>
       <use xlink:href="#m07b1a6ea65" x="385.166576" y="56.340781" style="fill: #596775; stroke: #596775; stroke-width: 0.8"/>
      </g>
     </g>
    </g>
   </g>
   <g id="line2d_48">
    <path d="M 457.392663 181.83918 
L 457.392663 56.340781 
" clip-path="url(#pb6bf04f265)" style="fill: none; stroke-dasharray: 1.2,1.98; stroke-dashoffset: 0; stroke: #596775; stroke-width: 1.2"/>
   </g>
   <g id="patch_13">
    <path d="M 204.601357 181.83918 
L 240.714401 181.83918 
L 240.714401 181.502903 
L 245.228531 181.502903 
L 245.228531 181.83918 
L 258.770923 181.83918 
L 258.770923 181.502903 
L 263.285053 181.502903 
L 263.285053 181.83918 
L 281.341575 181.83918 
L 281.341575 181.502903 
L 285.855706 181.502903 
L 285.855706 181.83918 
L 290.369836 181.83918 
L 290.369836 181.502903 
L 294.883966 181.502903 
L 294.883966 181.83918 
L 312.940488 181.83918 
L 312.940488 181.502903 
L 317.454619 181.502903 
L 317.454619 181.83918 
L 321.968749 181.83918 
L 321.968749 181.502903 
L 326.48288 181.502903 
L 326.48288 181.166627 
L 335.511141 181.166627 
L 335.511141 180.494074 
L 340.025271 180.494074 
L 340.025271 180.83035 
L 344.539401 180.83035 
L 344.539401 180.494074 
L 349.053532 180.494074 
L 349.053532 180.157797 
L 353.567662 180.157797 
L 353.567662 181.166627 
L 358.081793 181.166627 
L 358.081793 180.157797 
L 367.110054 180.157797 
L 367.110054 180.494074 
L 371.624184 180.494074 
L 371.624184 179.821521 
L 376.138315 179.821521 
L 376.138315 177.131308 
L 380.652445 177.131308 
L 380.652445 177.467585 
L 385.166576 177.467585 
L 385.166576 177.131308 
L 389.680706 177.131308 
L 389.680706 179.485244 
L 394.194836 179.485244 
L 394.194836 178.812691 
L 398.708967 178.812691 
L 398.708967 177.803861 
L 403.223097 177.803861 
L 403.223097 180.494074 
L 407.737228 180.494074 
L 407.737228 177.467585 
L 412.251358 177.467585 
L 412.251358 177.131308 
L 416.765489 177.131308 
L 416.765489 176.122479 
L 421.279619 176.122479 
L 421.279619 178.140138 
L 425.79375 178.140138 
L 425.79375 174.10482 
L 430.30788 174.10482 
L 430.30788 172.423437 
L 434.82201 172.423437 
L 434.82201 167.715566 
L 439.336141 167.715566 
L 439.336141 162.671418 
L 443.850271 162.671418 
L 443.850271 153.255675 
L 448.364402 153.255675 
L 448.364402 141.822273 
L 452.878532 141.822273 
L 452.878532 133.079084 
L 457.392663 133.079084 
L 457.392663 122.990788 
L 461.906793 122.990788 
L 461.906793 124.335894 
L 466.420924 124.335894 
L 466.420924 135.433019 
L 470.935054 135.433019 
L 470.935054 145.857592 
L 475.449185 145.857592 
L 475.449185 150.90174 
L 479.963315 150.90174 
L 479.963315 156.282164 
L 484.477445 156.282164 
L 484.477445 156.61844 
L 488.991576 156.61844 
L 488.991576 163.007694 
L 493.505706 163.007694 
L 493.505706 167.715566 
L 498.019837 167.715566 
L 498.019837 168.388119 
L 502.533967 168.388119 
L 502.533967 171.078331 
L 507.048098 171.078331 
L 507.048098 174.441096 
L 511.562228 174.441096 
L 511.562228 176.122479 
L 516.076359 176.122479 
L 516.076359 175.786202 
L 520.590489 175.786202 
L 520.590489 176.795032 
L 529.61875 176.795032 
L 529.61875 175.786202 
L 534.13288 175.786202 
L 534.13288 178.812691 
L 538.12 178.812691 
L 538.12 178.812691 
" clip-path="url(#pb6bf04f265)" style="fill: none; stroke: #30688e; stroke-width: 1.7; stroke-linejoin: miter"/>
   </g>
   <g id="patch_14">
    <path d="M 204.601357 181.83918 
L 213.629618 181.83918 
L 213.629618 181.564446 
L 218.143749 181.564446 
L 218.143749 181.83918 
L 294.883966 181.83918 
L 294.883966 181.564446 
L 299.398097 181.564446 
L 299.398097 181.83918 
L 308.426358 181.83918 
L 308.426358 181.564446 
L 321.968749 181.564446 
L 321.968749 181.83918 
L 326.48288 181.83918 
L 326.48288 181.014978 
L 330.99701 181.014978 
L 330.99701 181.564446 
L 335.511141 181.564446 
L 335.511141 180.465511 
L 340.025271 180.465511 
L 340.025271 180.740244 
L 344.539401 180.740244 
L 344.539401 180.190777 
L 349.053532 180.190777 
L 349.053532 181.014978 
L 353.567662 181.014978 
L 353.567662 180.740244 
L 358.081793 180.740244 
L 358.081793 180.465511 
L 362.595923 180.465511 
L 362.595923 179.641309 
L 367.110054 179.641309 
L 367.110054 180.465511 
L 371.624184 180.465511 
L 371.624184 179.091842 
L 376.138315 179.091842 
L 376.138315 176.893971 
L 380.652445 176.893971 
L 380.652445 175.245569 
L 385.166576 175.245569 
L 385.166576 177.168705 
L 389.680706 177.168705 
L 389.680706 179.091842 
L 394.194836 179.091842 
L 394.194836 177.718173 
L 403.223097 177.718173 
L 403.223097 178.817108 
L 407.737228 178.817108 
L 407.737228 177.718173 
L 412.251358 177.718173 
L 412.251358 178.542374 
L 416.765489 178.542374 
L 416.765489 176.344504 
L 425.79375 176.344504 
L 425.79375 173.8719 
L 430.30788 173.8719 
L 430.30788 173.047698 
L 434.82201 173.047698 
L 434.82201 167.003555 
L 439.336141 167.003555 
L 439.336141 163.432015 
L 443.850271 163.432015 
L 443.850271 150.244793 
L 448.364402 150.244793 
L 448.364402 144.750117 
L 452.878532 144.750117 
L 452.878532 135.683902 
L 457.392663 135.683902 
L 457.392663 124.419816 
L 461.906793 124.419816 
L 461.906793 126.342953 
L 466.420924 126.342953 
L 466.420924 139.530175 
L 470.935054 139.530175 
L 470.935054 144.475383 
L 475.449185 144.475383 
L 475.449185 151.068994 
L 479.963315 151.068994 
L 479.963315 156.288937 
L 484.477445 156.288937 
L 484.477445 159.585742 
L 493.505706 159.585742 
L 493.505706 167.553022 
L 498.019837 167.553022 
L 498.019837 167.278288 
L 502.533967 167.278288 
L 502.533967 171.124562 
L 507.048098 171.124562 
L 507.048098 174.146633 
L 511.562228 174.146633 
L 511.562228 174.970835 
L 516.076359 174.970835 
L 516.076359 176.344504 
L 520.590489 176.344504 
L 520.590489 175.795036 
L 525.10462 175.795036 
L 525.10462 177.718173 
L 529.61875 177.718173 
L 529.61875 176.06977 
L 534.13288 176.06977 
L 534.13288 179.091842 
L 538.12 179.091842 
L 538.12 179.091842 
" clip-path="url(#pb6bf04f265)" style="fill: none; stroke-dasharray: 6.8,3.4; stroke-dashoffset: 0; stroke: #d57632; stroke-width: 1.7; stroke-linejoin: miter"/>
   </g>
   <g id="patch_15">
    <path d="M 385.166576 181.83918 
L 385.166576 56.340781 
" style="fill: none; stroke: #a2abb3; stroke-width: 0.7; stroke-linejoin: miter; stroke-linecap: square"/>
   </g>
   <g id="patch_16">
    <path d="M 385.166576 181.83918 
L 529.61875 181.83918 
" style="fill: none; stroke: #a2abb3; stroke-width: 0.7; stroke-linejoin: miter; stroke-linecap: square"/>
   </g>
   <g id="text_24">
    <!-- C  $\it{E.\ coli}$ -->
    <g style="fill: #273444" transform="translate(385.166576 43.340781)">
     <text>
      <tspan x="0" y="-0.265625" style="font-weight: 700; font-size: 11.5px; font-family: 'DejaVu Sans'; fill: #273444">C</tspan>
      <tspan x="8.439697" y="-0.265625" style="font-weight: 700; font-size: 11.5px; font-family: 'DejaVu Sans'; fill: #273444"> </tspan>
      <tspan x="12.443359" y="-0.265625" style="font-weight: 700; font-size: 11.5px; font-family: 'DejaVu Sans'; fill: #273444"> </tspan>
      <tspan x="16.447021" y="-0.265625" style="font-style: oblique; font-size: 11.5px; font-family: 'DejaVu Sans'; fill: #273444">E</tspan>
      <tspan x="23.713135" y="-0.265625" style="font-style: oblique; font-size: 11.5px; font-family: 'DejaVu Sans'; fill: #273444">.</tspan>
      <tspan x="33.343224" y="-0.265625" style="font-style: oblique; font-size: 11.5px; font-family: 'DejaVu Sans'; fill: #273444">c</tspan>
      <tspan x="39.665978" y="-0.265625" style="font-style: oblique; font-size: 11.5px; font-family: 'DejaVu Sans'; fill: #273444">o</tspan>
      <tspan x="46.701867" y="-0.265625" style="font-style: oblique; font-size: 11.5px; font-family: 'DejaVu Sans'; fill: #273444">l</tspan>
      <tspan x="49.896935" y="-0.265625" style="font-style: oblique; font-size: 11.5px; font-family: 'DejaVu Sans'; fill: #273444">i</tspan>
     </text>
    </g>
   </g>
  </g>
  <g id="text_25">
   <text style="font-size: 10.5px; font-family: 'DejaVu Sans'; text-anchor: middle; fill: #273444" x="268.56" y="217.837539" transform="rotate(-0 268.56 217.837539)">Observed log₂(B/A)</text>
  </g>
  <g id="legend_1">
   <g id="line2d_49">
    <path d="M 130.868594 13.098437 
L 142.368594 13.098437 
L 153.868594 13.098437 
" style="fill: none; stroke: #30688e; stroke-width: 1.7; stroke-linecap: square"/>
   </g>
   <g id="text_26">
    <text style="font-size: 10px; font-family: 'DejaVu Sans'; text-anchor: start; fill: #273444" x="161.868594" y="16.598437" transform="rotate(-0 161.868594 16.598437)">Sage</text>
   </g>
   <g id="line2d_50">
    <path d="M 204.846719 13.098437 
L 216.346719 13.098437 
L 227.846719 13.098437 
" style="fill: none; stroke-dasharray: 6.8,3.4; stroke-dashoffset: 0; stroke: #d57632; stroke-width: 1.7"/>
   </g>
   <g id="text_27">
    <text style="font-size: 10px; font-family: 'DejaVu Sans'; text-anchor: start; fill: #273444" x="235.846719" y="16.598437" transform="rotate(-0 235.846719 16.598437)">Sage Plus</text>
   </g>
   <g id="line2d_51">
    <path d="M 302.357656 13.098437 
L 313.857656 13.098437 
L 325.357656 13.098437 
" style="fill: none; stroke-dasharray: 1.2,1.98; stroke-dashoffset: 0; stroke: #596775; stroke-width: 1.2"/>
   </g>
   <g id="text_28">
    <text style="font-size: 10px; font-family: 'DejaVu Sans'; text-anchor: start; fill: #273444" x="333.357656" y="16.598437" transform="rotate(-0 333.357656 16.598437)">Expected ratio</text>
   </g>
  </g>
 </g>
 <defs>
  <clipPath id="p9dd8f5381a">
   <rect x="50.547383" y="56.340781" width="144.452174" height="125.498398"/>
  </clipPath>
  <clipPath id="p8ad2365494">
   <rect x="219.951901" y="56.340781" width="144.452174" height="125.498398"/>
  </clipPath>
  <clipPath id="pb6bf04f265">
   <rect x="385.166576" y="56.340781" width="144.452174" height="125.498398"/>
  </clipPath>
 </defs>
</svg>
